<svg xmlns="http://www.w3.org/2000/svg" viewBox="0 0 55 55"><defs><style>.cls-1{fill:#fff;}</style></defs><g id="Layer_2" data-name="Layer 2"><g id="Layer_2-2" data-name="Layer 2"><path class="cls-1" d="M27.5,1A26.5,26.5,0,1,1,1,27.5,26.53,26.53,0,0,1,27.5,1m0-1A27.5,27.5,0,1,0,55,27.5,27.5,27.5,0,0,0,27.5,0Z"/><g id="discord-color-seeklogo.com-2"><path id="Path_46496" data-name="Path 46496" class="cls-1" d="M37.35,18a23.65,23.65,0,0,0-5.8-1.8.1.1,0,0,0-.09,0,13.47,13.47,0,0,0-.72,1.48,21.53,21.53,0,0,0-6.51,0,13.54,13.54,0,0,0-.73-1.48.12.12,0,0,0-.09,0,23.52,23.52,0,0,0-5.8,1.8l0,0a24.11,24.11,0,0,0-4.2,16.2.16.16,0,0,0,0,.07,23.76,23.76,0,0,0,7.1,3.59.09.09,0,0,0,.1,0,17,17,0,0,0,1.46-2.37.1.1,0,0,0,0-.12h0a16.15,16.15,0,0,1-2.22-1.06.1.1,0,0,1,0-.13l0,0,.44-.35a.08.08,0,0,1,.09,0,16.87,16.87,0,0,0,14.3,0,.09.09,0,0,1,.1,0l.44.35a.08.08,0,0,1,0,.12l0,0a14.07,14.07,0,0,1-2.22,1,.09.09,0,0,0,0,.12h0a19.64,19.64,0,0,0,1.45,2.36.09.09,0,0,0,.1,0,23.52,23.52,0,0,0,7.12-3.59.1.1,0,0,0,0-.07A23.88,23.88,0,0,0,37.38,18ZM22.76,31a2.72,2.72,0,0,1-2.55-2.87,2.72,2.72,0,0,1,2.55-2.87,2.71,2.71,0,0,1,2.56,2.85v0A2.73,2.73,0,0,1,22.76,31Zm9.46,0a2.74,2.74,0,0,1-2.56-2.87,2.58,2.58,0,1,1,5.12,0v0A2.71,2.71,0,0,1,32.23,31Z"/></g></g></g></svg>