<svg xmlns="http://www.w3.org/2000/svg" viewBox="0 0 55 55"><defs><style>.cls-1{fill:#fff;}.cls-2{fill:#f6f6f6;}</style></defs><g id="Layer_2" data-name="Layer 2"><g id="Layer_2-2" data-name="Layer 2"><path class="cls-1" d="M27.5,1A26.5,26.5,0,1,1,1,27.5,26.53,26.53,0,0,1,27.5,1m0-1A27.5,27.5,0,1,0,55,27.5,27.5,27.5,0,0,0,27.5,0Z"/><path id="Icon_awesome-facebook-f" data-name="Icon awesome-facebook-f" class="cls-2" d="M32.83,28.93l.63-4.14h-4V22.1a2.07,2.07,0,0,1,1.88-2.25,2.26,2.26,0,0,1,.45,0h1.81V16.33a21.51,21.51,0,0,0-3.21-.28c-3.27,0-5.41,2-5.41,5.58v3.16H21.37v4.14H25V39h4.48v-10Z"/></g></g></svg>