<svg xmlns="http://www.w3.org/2000/svg" viewBox="0 0 55 55"><defs><style>.cls-1{fill:#fff;}.cls-2{fill:#f6f6f6;}</style></defs><g id="Layer_2" data-name="Layer 2"><g id="Layer_2-2" data-name="Layer 2"><path class="cls-1" d="M27.5,1A26.5,26.5,0,1,1,1,27.5,26.53,26.53,0,0,1,27.5,1m0-1A27.5,27.5,0,1,0,55,27.5,27.5,27.5,0,0,0,27.5,0Z"/><path id="Icon_metro-instagram" data-name="Icon metro-instagram" class="cls-2" d="M34.79,16.58H20.21a3.64,3.64,0,0,0-3.63,3.63V34.79a3.64,3.64,0,0,0,3.63,3.63H34.79a3.65,3.65,0,0,0,3.63-3.63V20.21A3.65,3.65,0,0,0,34.79,16.58ZM23.57,26.13h7.86a4.16,4.16,0,1,1-7.86,2.73A4.12,4.12,0,0,1,23.57,26.13Zm12.12,0v8.19a1.37,1.37,0,0,1-1.37,1.37H20.67a1.36,1.36,0,0,1-1.36-1.36V26.14h2.13a6.21,6.21,0,0,0,12.11,2.73,6,6,0,0,0,0-2.73Zm0-4.77A.69.69,0,0,1,35,22H33.64a.69.69,0,0,1-.68-.68V20a.69.69,0,0,1,.68-.68H35a.68.68,0,0,1,.68.68Z"/></g></g></svg>