<svg id="Component_27_1" data-name="Component 27 – 1" xmlns="http://www.w3.org/2000/svg" xmlns:xlink="http://www.w3.org/1999/xlink" width="147.344" height="71.949" viewBox="0 0 147.344 71.949">
  <defs>
    <linearGradient id="linear-gradient" x1="0.188" y1="0.887" x2="1.626" y2="0.35" gradientUnits="objectBoundingBox">
      <stop offset="0" stop-color="#d13692"/>
      <stop offset="1" stop-color="#f8380e"/>
    </linearGradient>
  </defs>
  <g id="Group_86189" data-name="Group 86189" transform="translate(-380.061 -655.872)">
    <g id="Group_86126" data-name="Group 86126" transform="translate(380.061 655.872)">
      <path id="Path_1505" data-name="Path 1505" d="M412.165,688.316c-1.442.72-2.735,1.348-4.012,2.007-3.41,1.757-6.742,3.686-10.241,5.239a34.942,34.942,0,0,1-8.3,2.724c-7.564,1.252-10.3-4.84-9.377-10.07.876-4.975,3.459-9.16,6.381-13.131a47.909,47.909,0,0,1,17.706-14.913,28.583,28.583,0,0,1,11.861-3.149c2.076-.051,4.425-.156,5.962,1.734a7.8,7.8,0,0,1,1.563,3.034c.914,3.964-.253,7.55-2.25,10.972a33.782,33.782,0,0,1-17.132,14.509,13.155,13.155,0,0,1-7.2,1.112,5.353,5.353,0,0,1-4.625-5.121,13.085,13.085,0,0,1,2.7-9.213,26.391,26.391,0,0,1,11.717-9.226,14.136,14.136,0,0,1,7.209-.976c2.118.281,2.821,1.6,3.087,3.676a6.392,6.392,0,0,1-1.709,5.117c-.993,1.13-2.119,2.142-3.186,3.207l-.462-.36a6.378,6.378,0,0,1,.5-.887c1.08-1.382,2.186-2.745,3.269-4.125a2.7,2.7,0,0,0,.339-.7c1.138-2.939.025-4.591-3.136-4.709-4.017-.151-7.352,1.588-10.523,3.766a22.475,22.475,0,0,0-7.859,9.253,14.942,14.942,0,0,0-1.189,4.326c-.273,2.191,1.626,3.866,4.24,4.076a15.327,15.327,0,0,0,7.75-1.724A37.08,37.08,0,0,0,419.9,672.783a16.826,16.826,0,0,0,3.376-8.667,5.878,5.878,0,0,0-5.076-6.041,18.823,18.823,0,0,0-9.758,1.342c-9.937,3.945-17.3,10.942-23.113,19.725a29.171,29.171,0,0,0-3.988,8.5,12.141,12.141,0,0,0-.381,1.764c-.595,5.164,2.729,7.422,7.121,7.2a26.726,26.726,0,0,0,10.541-3.279c3.924-1.959,7.794-4.026,11.735-5.947.723-.353,1.958-.621,2.464-.252,1.035.754.456,1.948,0,2.943a3.882,3.882,0,0,0-.426,1.018c2.259-1.782,4.492-3.6,6.786-5.336,2.263-1.714,4.555-3.4,6.915-4.974a2.4,2.4,0,0,1,1.9.029c.291.116.313.907.466,1.424.984-.13,1.314-2.32,3.305-1.431-4.178,4.182-8.522,7.856-10.876,13.12l.289.364a42.866,42.866,0,0,0,3.948-2.875c2.854-2.6,5.72-5.2,8.335-8.025a21.114,21.114,0,0,0,2.97-4.942,61.37,61.37,0,0,1,12.069-16.33c1.994-1.949,4.177-3.706,6.311-5.507.607-.512,1.321-1.129,2.173-.392a1.758,1.758,0,0,1,.1,2.568,46.839,46.839,0,0,1-3.613,4.547c-5.094,5.5-10.209,10.975-15.409,16.371-1.672,1.735-2.375,3.9-3.146,6.013a46.54,46.54,0,0,0-2.091,7.7c-.355,1.977.376,2.44,2.182,1.452a44.535,44.535,0,0,0,4.884-3.357c2.117-1.558,4.189-3.176,6.283-4.764a1.324,1.324,0,0,1,.548-.326,11.211,11.211,0,0,1,1.293-.01c-.179.354-.268.822-.551,1.046q-5.051,4.014-10.159,7.956c-.4.313-.906.5-1.336.778a2.637,2.637,0,0,1-3.351-.041,3.181,3.181,0,0,1-1.409-3.264c.5-2.3,1.164-4.564,1.767-6.841.105-.4.244-.787.425-1.361-2.64,2.605-5.095,5.079-7.613,7.488a22.1,22.1,0,0,1-3.212,2.6c-1.605,1.04-2.642.563-3.154-1.531-1.5,1.568-2.867,3.049-4.293,4.473a4.075,4.075,0,0,1-1.676,1.16,2.277,2.277,0,0,1-1.8-.385,1.722,1.722,0,0,1-.348-1.627c1.244-2.094,2.636-4.1,3.982-6.134a2.461,2.461,0,0,0,.376-.665,30.122,30.122,0,0,0-7.35,6.043c-2.7,3.126-5.619,6.069-8.52,9.017-3.442,3.5-6.916,6.97-10.474,10.35-1.678,1.595-3.569,2.97-5.4,4.4-.6.468-1.374,1.064-2.063.308a1.914,1.914,0,0,1-.08-2.518c1.222-1.668,2.416-3.367,3.772-4.922A83.372,83.372,0,0,1,399.913,699.4c2.234-1.591,4.569-3.041,6.876-4.528A17.344,17.344,0,0,0,412.165,688.316Zm43.865-31.127c-7.9,5.2-13.411,12.428-17.595,20.773A48.3,48.3,0,0,0,442.412,674c3.323-3.649,6.673-7.274,9.923-10.987C453.843,661.288,455.535,659.644,456.03,657.188Zm-43.358,40.223.392.376c.6-.468,1.245-.9,1.8-1.413.819-.755,1.584-1.567,2.363-2.364a60.211,60.211,0,0,0,5.129-5.361,41.96,41.96,0,0,1,3.5-4.715,7.661,7.661,0,0,0,.88-1.109c.262-.382.478-.8.714-1.2l-.36-.24C421.338,685.885,416.234,690.961,412.672,697.411Zm-29.631,20.914c2.5-1.358,18.858-17.122,19.754-18.969C395.224,704.744,384.1,715.365,383.041,718.325Z" transform="translate(-380.061 -655.872)" fill="url(#linear-gradient)"/>
      <path id="Path_1506" data-name="Path 1506" d="M681.366,720c-4.594,2.186-7.144,6.034-8.458,10.784a3.231,3.231,0,0,0,.553,2.564,2.092,2.092,0,0,0,2.96.057,27.578,27.578,0,0,0,4.9-4.489c3.142-4.207,5.284-8.894,5.091-14.32a18.377,18.377,0,0,0-1.427-6.915c-1.332,1.206-2.511,2.372-3.8,3.408a23.506,23.506,0,0,1-4,2.811,4.858,4.858,0,0,0-2.393,2.684,40.707,40.707,0,0,1-6.757,10.922c-.819.94-1.718,2.037-3.158,1.506a2.54,2.54,0,0,1-1.466-3.245,50.1,50.1,0,0,1,2.535-7.538,73.691,73.691,0,0,1,4.511-8.557A17.946,17.946,0,0,1,674,705.84c.853-.753,2.651.493,2.669,1.9.021,1.622-.184,3.246-.313,5.2.741-.641,1.71-1.075,1.933-1.753.516-1.57,1.838-2.035,2.991-2.808A26.849,26.849,0,0,0,684.1,706.2c.173-.153.085-.72-.023-1.05-.481-1.47-1.126-2.9-1.5-4.389a7.507,7.507,0,0,1,6.686-9.543,3.578,3.578,0,0,1,3.648,4.131,8.643,8.643,0,0,1-.813,2.169,28.242,28.242,0,0,1-4.815,7.112c-1.7,1.734-1.731,2.817-.452,5.247a18.427,18.427,0,0,0,1.661-2.508c2.106-4.731,5.5-8.48,9.141-12.032a2.105,2.105,0,0,1,1.93-.231c.834.421.232,1.15-.158,1.62-3.023,3.639-6.036,7.289-9.138,10.86a6.3,6.3,0,0,0-1.4,4.427c0,.943.687.936,1.272.617,1.5-.818,2.952-1.72,4.571-2.676l-2.282-.926.085-.394a20.145,20.145,0,0,0,2.069-.336,7.37,7.37,0,0,0,4.163-3.252c2.255-3.288,4.555-6.547,6.771-9.861,3.7-5.526,7.325-11.1,11.033-16.615.357-.531.579-1.832,1.589-1.177,1.065.691-.092,1.311-.466,1.854a180.992,180.992,0,0,0-13.683,22.94c-.091.186-.164.382-.391.916,2.059-1.332,3.845-2.471,5.615-3.637,5.73-3.774,11.59-7.331,18.172-9.419a30.239,30.239,0,0,1,6.479-.972,3.269,3.269,0,0,1,2.882,1.449c1.182,1.522-.369,4.245-2.671,4.9a15.5,15.5,0,0,0,.9-1.657c.345-.893.612-1.815.912-2.725a13.93,13.93,0,0,0-2.675-.569c-3.682-.066-7,1.356-10.264,2.809-6.6,2.938-12.565,6.993-18.7,10.748a6.848,6.848,0,0,0-2.672,3.339c-.757,1.733-1.483,3.48-2.192,5.233a2.518,2.518,0,0,0-.136,1.013,68.433,68.433,0,0,1-1.9,17.289,45.631,45.631,0,0,1-1.306,5.114c-.206.595-1.127,1.439-1.55,1.35a2.665,2.665,0,0,1-1.784-1.512,14.768,14.768,0,0,1-.464-4.463c.282-5.7,2.083-11.047,4.157-16.308.346-.879.719-1.748,1.109-2.608.512-1.129-.331-1.652-.98-2.262-.771-.724-1.108.067-1.563.455-.788.671-1.549,1.38-2.381,1.993-1.5,1.107-3.078,1.868-4.8.308,0,1.857.135,3.566-.024,5.248a24.065,24.065,0,0,1-7.957,16.016c-1.275,1.166-4.374,1.825-5.647,1.007a4.75,4.75,0,0,1-2.372-5.081,15.3,15.3,0,0,1,8.209-11.268,3.681,3.681,0,0,1,1.613-.418,1.828,1.828,0,0,1,1.281,2.748c-1.018,1.478-2.188,2.852-3.32,4.25a1.25,1.25,0,0,1-.749.461,1.4,1.4,0,0,1-1.051-.245c-.146-.171-.019-.763.182-1.009,1.219-1.488,2.494-2.93,3.75-4.388Zm3.745-14.817a28.434,28.434,0,0,1,2.724-3.057,12.6,12.6,0,0,0,4.075-6.8c.53-2.091-.266-2.972-2.392-2.624C684.09,693.586,681.635,700.236,685.111,705.184Zm-15.31,8.9c-2.171,4.156-4.908,8.313-4.982,13.6a3.8,3.8,0,0,0,2.067-1.094c1.79-2.456,3.5-4.972,5.162-7.52a36.726,36.726,0,0,0,1.754-3.323Zm24.552,21.938c2.117-3.133,2.58-6.747,3.193-10.282.6-3.44,1.436-6.889.9-10.821C695.892,722,693.8,728.758,694.352,736.023Zm-18.5-26.779c.055-2.344-.367-2.826-1.408-2.394a5.155,5.155,0,0,0-2.5,3.949c0,.26-.285.511-.367.787-.193.655-.582,1.389-.421,1.96.1.342,1.106.653,1.655.584.673-.085,1.658-.429,1.868-.93A28.943,28.943,0,0,0,675.852,709.245Zm22.282-12.178-.522-.395-6.412,7.9.436.355Zm.379,9.225c3.423-1.289,3.772-4.638,5.324-7.09Zm-.163,4.159,1.351-3.008-.231-.162-3.066,1.76Z" transform="translate(-589.804 -671.674)" fill="url(#linear-gradient)"/>
      <path id="Path_1507" data-name="Path 1507" d="M564.429,760.306a36.178,36.178,0,0,0,3.142-3.533,41.864,41.864,0,0,0,2.9-5.123c.232-.465.012-1.156,0-1.743a7.357,7.357,0,0,0-1.98.193c-2.878,1.113-5.123,3.173-7.321,5.233-3.376,3.163-6.581,6.53-8.623,10.729a30.246,30.246,0,0,0-2.577,7.366c-.513,2.65,1.684,4.006,4.18,2.894a33.808,33.808,0,0,0,11.217-8.3A79.574,79.574,0,0,0,577.1,751.7c2.9-5.429,5.764-10.872,8.507-16.474-1.833,1.421-3.67,2.836-5.5,4.263-2.411,1.882-4.808,3.781-7.226,5.652a7.075,7.075,0,0,1-1.745,1.1c-.586.22-1.671.445-1.829.2a2.535,2.535,0,0,1-.384-2.111,18.4,18.4,0,0,1,2.769-3.834c3.161-3.347,6.485-6.541,9.621-9.911a55.04,55.04,0,0,0,3.658-4.873l-.288-.525a13.514,13.514,0,0,0-3.341.3c-5.374,1.876-10.264,4.534-13.531,9.423a26.065,26.065,0,0,0-1.529,3.378,5.849,5.849,0,0,1-.745.982c-.39-.323-1.153-.717-1.107-.958.233-1.226.321-2.774,1.111-3.543a48.448,48.448,0,0,1,7.333-6.032,78.168,78.168,0,0,1,8.712-4.472,4.792,4.792,0,0,1,2.142-.36c2.1.058,3.247,1.895,2.044,3.592a75.5,75.5,0,0,1-5.306,6.31c-2.83,3.187-5.717,6.324-8.57,9.49a7.727,7.727,0,0,0-.61.9l.225.265a14.8,14.8,0,0,0,1.582-.934c4.643-3.551,9.364-7.009,13.863-10.734,2.131-1.765,3.816-4.065,5.73-6.1a8.8,8.8,0,0,1,2.005-1.774c.437-.24,1.161.041,1.757.087-.12.529-.08,1.191-.39,1.561a23.917,23.917,0,0,1-2.732,2.747c-3.972,3.412-6.6,7.786-8.99,12.342-3.773,7.207-7.167,14.626-12.093,21.18-3.295,4.383-6.7,8.667-11.311,11.753a42.588,42.588,0,0,1-5.46,2.92c-1.76.836-3.629,1.133-5.2-.366a5.049,5.049,0,0,1-1.208-5.381,32.768,32.768,0,0,1,5.153-10.419,50.194,50.194,0,0,1,10.753-10.817,12.912,12.912,0,0,1,4.45-1.9c1.774-.452,2.725.512,2.6,2.356a13.013,13.013,0,0,1-4.3,8.568,5.775,5.775,0,0,1-1.624,1.224,4.269,4.269,0,0,1-1.581.038Z" transform="translate(-505.004 -706.252)" fill="url(#linear-gradient)"/>
      <path id="Path_1508" data-name="Path 1508" d="M461.873,847.168l2.033-.72c-.294,1.18-2.4,2.446-3.31,2.013-.887-.422-.541-1.117-.112-1.6,1.2-1.354,2.405-2.705,3.716-3.945a77.631,77.631,0,0,1,15.468-11.376c1.912-1.071,3.942-1.932,5.915-2.9.987-.482,1.513-.026,1.947,1-5.133,1.579-9.591,4.347-13.952,7.266a59.747,59.747,0,0,0-11.89,9.984Z" transform="translate(-439.291 -783.671)" fill="url(#linear-gradient)"/>
    </g>
  </g>
</svg>
