<svg xmlns="http://www.w3.org/2000/svg" viewBox="0 0 55 55"><defs><style>.cls-1{fill:#fff;}.cls-2{fill:#f6f6f6;}</style></defs><g id="Layer_2" data-name="Layer 2"><g id="Layer_2-2" data-name="Layer 2"><path class="cls-1" d="M27.5,1A26.5,26.5,0,1,1,1,27.5,26.53,26.53,0,0,1,27.5,1m0-1A27.5,27.5,0,1,0,55,27.5,27.5,27.5,0,0,0,27.5,0Z"/><path id="Icon_simple-behance" data-name="Icon simple-behance" class="cls-2" d="M21.77,19a10,10,0,0,1,2.18.22,4.82,4.82,0,0,1,1.68.69,3.14,3.14,0,0,1,1.08,1.26,4.44,4.44,0,0,1,.39,2,3.73,3.73,0,0,1-.58,2.1,4.09,4.09,0,0,1-1.7,1.38,4,4,0,0,1,2.29,1.55,4.6,4.6,0,0,1,.75,2.67A4.6,4.6,0,0,1,27.4,33a4.3,4.3,0,0,1-1.31,1.53,5.92,5.92,0,0,1-1.89.87,8.32,8.32,0,0,1-2.16.28H13.92V19h7.85ZM33.09,32.78A3.42,3.42,0,0,0,37,33a2.11,2.11,0,0,0,.88-1.07h2.93a5.57,5.57,0,0,1-2.15,3.12,6.21,6.21,0,0,1-3.49.93,6.86,6.86,0,0,1-2.57-.45,5.4,5.4,0,0,1-3.16-3.29A7.22,7.22,0,0,1,29,29.67a6.77,6.77,0,0,1,.45-2.52,5.9,5.9,0,0,1,3.23-3.38,6.06,6.06,0,0,1,2.52-.49,5.84,5.84,0,0,1,2.69.59,5.44,5.44,0,0,1,1.88,1.59,6.43,6.43,0,0,1,1.06,2.28,8.75,8.75,0,0,1,.24,2.7h-8.7a3.41,3.41,0,0,0,.8,2.33l-.09,0Zm-11.59,0a5.07,5.07,0,0,0,1-.1,2.58,2.58,0,0,0,.86-.34,1.64,1.64,0,0,0,.59-.66,2.39,2.39,0,0,0,.22-1.09,2.19,2.19,0,0,0-.73-1.83,3,3,0,0,0-1.91-.54h-4v4.58H21.5v0Zm15.4-6.39A2.44,2.44,0,0,0,35,25.77a2.72,2.72,0,0,0-1.32.27,2.47,2.47,0,0,0-.84.67,2.42,2.42,0,0,0-.44.84,3.76,3.76,0,0,0-.15.8h5.38a3.23,3.23,0,0,0-.77-1.91v0Zm-15.6-.7a2.65,2.65,0,0,0,1.62-.47,1.74,1.74,0,0,0,.62-1.51,2.12,2.12,0,0,0-.2-1,1.67,1.67,0,0,0-.57-.58,2.53,2.53,0,0,0-.81-.29,5,5,0,0,0-.95-.08H17.58v3.89Zm10.3-5.61h6.76v1.65H31.6V20.13Z"/></g></g></svg>