<svg xmlns="http://www.w3.org/2000/svg" viewBox="0 0 55 55"><defs><style>.cls-1{fill:#fff;}.cls-2{fill:#f6f6f6;}</style></defs><g id="Layer_2" data-name="Layer 2"><g id="Layer_2-2" data-name="Layer 2"><path class="cls-1" d="M27.5,1A26.5,26.5,0,1,1,1,27.5,26.53,26.53,0,0,1,27.5,1m0-1A27.5,27.5,0,1,0,55,27.5,27.5,27.5,0,0,0,27.5,0Z"/><path id="Icon_metro-twitter" data-name="Icon metro-twitter" class="cls-2" d="M39.49,20.06a9.59,9.59,0,0,1-2.83.77,4.93,4.93,0,0,0,2.17-2.72A9.84,9.84,0,0,1,35.7,19.3a4.92,4.92,0,0,0-8.38,4.49,14,14,0,0,1-10.14-5.14,4.92,4.92,0,0,0,1.52,6.57,4.87,4.87,0,0,1-2.23-.61v.06a4.91,4.91,0,0,0,4,4.82,4.77,4.77,0,0,1-2.22.08A4.92,4.92,0,0,0,22.8,33a9.91,9.91,0,0,1-6.11,2.11A9.23,9.23,0,0,1,15.51,35,14,14,0,0,0,37.05,23.45v-.21c0-.21,0-.42,0-.63a10.07,10.07,0,0,0,2.45-2.55Z"/></g></g></svg>